# 
# Generated by Sweet Home 3D - vie jul 03 16:02:14 CEST 2015
# http://www.sweethome3d.com/
# 
mtllib Test.mtl
g ground_1
usemtl ground_1
v -6.25 0.0 91.809204
v -6.25 0.0 603.3092
v 803.25 0.0 603.3092
v 803.25 0.0 91.809204
vn 0.0 1.0 0.0
vn 0.0 0.0 0.0
f 1//1 2//1 3//1
f 1//1 3//1 4//1
g wall_1_2
usemtl wall_1_2
v 201.5 0.0 93.80922
v 201.5 0.0 97.55922
v 799.5 0.0 97.55922
v 803.25 0.0 93.80922
vn 0.0 -1.0 0.0
f 8//3 7//3 6//3
f 8//3 6//3 5//3
g wall_1_3
usemtl wall_1_2
v 201.5 250.0 97.55922
v 201.5 250.0 93.80922
v 803.25 250.0 93.80922
v 799.5 250.0 97.55922
vn -1.0 0.0 0.0
vn 0.70710677 0.0 0.70710677
vn 0.0 0.0 -1.0
f 5//4 6//4 9//4 10//4
f 7//5 8//5 11//5 12//5
f 8//6 5//6 10//6 11//6
g wall_1_4
usemtl wall_1_2
f 10//1 9//1 12//1
f 10//1 12//1 11//1
g wall_1_5
usemtl wall_1_2
v 201.5 0.0 101.30922
v 795.75 0.0 101.30922
f 7//3 14//3 13//3
f 7//3 13//3 6//3
g wall_1_6
usemtl wall_1_2
v 201.5 250.0 101.30922
v 795.75 250.0 101.30922
vn 0.0 0.0 1.0
f 6//4 13//4 15//4 9//4
f 13//7 14//7 16//7 15//7
f 14//5 7//5 12//5 16//5
g wall_1_7
usemtl wall_1_2
f 9//1 15//1 16//1
f 9//1 16//1 12//1
g wall_2_8
usemtl wall_1_2
v 799.5 0.0 599.5592
f 3//3 17//3 7//3
f 3//3 7//3 8//3
g wall_2_9
usemtl wall_1_2
v 803.25 250.0 603.3092
v 799.5 250.0 599.5592
vn -0.70710677 0.0 -0.70710677
vn -0.70710677 0.0 0.70710677
vn 1.0 0.0 0.0
f 8//8 7//8 12//8 11//8
f 17//9 3//9 18//9 19//9
f 3//10 8//10 11//10 18//10
g wall_2_10
usemtl wall_1_2
f 11//1 12//1 19//1
f 11//1 19//1 18//1
g wall_2_11
usemtl wall_1_2
v 795.75 0.0 595.8092
f 17//3 20//3 14//3
f 17//3 14//3 7//3
g wall_2_12
usemtl wall_1_2
v 795.75 250.0 595.8092
f 7//8 14//8 16//8 12//8
f 14//4 20//4 21//4 16//4
f 20//9 17//9 19//9 21//9
g wall_2_13
usemtl wall_1_2
f 12//1 16//1 21//1
f 12//1 21//1 19//1
g wall_3_14
usemtl wall_1_2
v 391.5 0.0 599.5592
v 387.75 0.0 603.3092
f 17//3 3//3 23//3
f 17//3 23//3 22//3
g wall_3_15
usemtl wall_1_2
v 387.75 250.0 603.3092
v 391.5 250.0 599.5592
vn 0.70710677 0.0 -0.70710677
f 22//8 23//8 24//8 25//8
f 23//7 3//7 18//7 24//7
f 3//11 17//11 19//11 18//11
g wall_3_16
usemtl wall_1_2
f 25//1 24//1 18//1
f 25//1 18//1 19//1
g wall_3_17
usemtl wall_1_2
v 395.25 0.0 595.8092
f 20//3 17//3 22//3
f 20//3 22//3 26//3
g wall_3_18
usemtl wall_1_2
v 395.25 250.0 595.8092
f 26//8 22//8 25//8 27//8
f 17//11 20//11 21//11 19//11
f 20//6 26//6 27//6 21//6
g wall_3_19
usemtl wall_1_2
f 27//1 25//1 19//1
f 27//1 19//1 21//1
g wall_4_20
usemtl wall_1_2
v 391.5 0.0 393.5592
v 387.75 0.0 397.3092
f 22//3 23//3 29//3
f 22//3 29//3 28//3
g wall_4_21
usemtl wall_1_2
v 387.75 250.0 397.3092
v 391.5 250.0 393.5592
f 28//8 29//8 30//8 31//8
f 29//4 23//4 24//4 30//4
f 23//5 22//5 25//5 24//5
g wall_4_22
usemtl wall_1_2
f 31//1 30//1 24//1
f 31//1 24//1 25//1
g wall_4_23
usemtl wall_1_2
v 395.25 0.0 389.8092
f 26//3 22//3 28//3
f 26//3 28//3 32//3
g wall_4_24
usemtl wall_1_2
v 395.25 250.0 389.8092
f 32//8 28//8 31//8 33//8
f 22//5 26//5 27//5 25//5
f 26//10 32//10 33//10 27//10
g wall_4_25
usemtl wall_1_2
f 33//1 31//1 25//1
f 33//1 25//1 27//1
g wall_5_26
usemtl wall_1_2
v 101.5 0.0 393.5592
v 97.75 0.0 397.3092
f 28//3 29//3 35//3
f 28//3 35//3 34//3
g wall_5_27
usemtl wall_1_2
v 97.75 250.0 397.3092
v 101.5 250.0 393.5592
f 34//8 35//8 36//8 37//8
f 35//7 29//7 30//7 36//7
f 29//5 28//5 31//5 30//5
g wall_5_28
usemtl wall_1_2
f 37//1 36//1 30//1
f 37//1 30//1 31//1
g wall_5_29
usemtl wall_1_2
v 105.25 0.0 389.8092
f 32//3 28//3 34//3
f 32//3 34//3 38//3
g wall_5_30
usemtl wall_1_2
v 105.25 250.0 389.8092
f 38//8 34//8 37//8 39//8
f 28//5 32//5 33//5 31//5
f 32//6 38//6 39//6 33//6
g wall_5_31
usemtl wall_1_2
f 39//1 37//1 31//1
f 39//1 31//1 33//1
g wall_6_32
usemtl wall_1_2
v 101.5 0.0 197.5592
v 97.75 0.0 201.3092
f 34//3 35//3 41//3
f 34//3 41//3 40//3
g wall_6_33
usemtl wall_1_2
v 97.75 250.0 201.3092
v 101.5 250.0 197.5592
f 40//8 41//8 42//8 43//8
f 41//4 35//4 36//4 42//4
f 35//5 34//5 37//5 36//5
g wall_6_34
usemtl wall_1_2
f 43//1 42//1 36//1
f 43//1 36//1 37//1
g wall_6_35
usemtl wall_1_2
v 105.25 0.0 193.8092
f 38//3 34//3 40//3
f 38//3 40//3 44//3
g wall_6_36
usemtl wall_1_2
v 105.25 250.0 193.8092
f 44//8 40//8 43//8 45//8
f 34//5 38//5 39//5 37//5
f 38//10 44//10 45//10 39//10
g wall_6_37
usemtl wall_1_2
f 45//1 43//1 37//1
f 45//1 37//1 39//1
g wall_7_38
usemtl wall_1_2
v -2.5 0.0 197.5592
v -6.25 0.0 201.3092
f 40//3 41//3 47//3
f 40//3 47//3 46//3
g wall_7_39
usemtl wall_1_2
v -6.25 250.0 201.3092
v -2.5 250.0 197.5592
f 46//8 47//8 48//8 49//8
f 47//7 41//7 42//7 48//7
f 41//5 40//5 43//5 42//5
g wall_7_40
usemtl wall_1_2
f 49//1 48//1 42//1
f 49//1 42//1 43//1
g wall_7_41
usemtl wall_1_2
v 1.25 0.0 193.8092
f 44//3 40//3 46//3
f 44//3 46//3 50//3
g wall_7_42
usemtl wall_1_2
v 1.25 250.0 193.8092
f 50//8 46//8 49//8 51//8
f 40//5 44//5 45//5 43//5
f 44//6 50//6 51//6 45//6
g wall_7_43
usemtl wall_1_2
f 51//1 49//1 43//1
f 51//1 43//1 45//1
g wall_8_44
usemtl wall_1_2
v -2.5 0.0 95.559204
f 52//3 46//3 47//3
f 52//3 47//3 1//3
g wall_8_45
usemtl wall_1_2
v -6.25 250.0 91.809204
v -2.5 250.0 95.559204
f 1//4 47//4 48//4 53//4
f 47//5 46//5 49//5 48//5
f 52//11 1//11 53//11 54//11
g wall_8_46
usemtl wall_1_2
f 53//1 48//1 49//1
f 53//1 49//1 54//1
g wall_8_47
usemtl wall_1_2
v 1.25 0.0 99.309204
f 55//3 50//3 46//3
f 55//3 46//3 52//3
g wall_8_48
usemtl wall_1_2
v 1.25 250.0 99.309204
f 46//5 50//5 51//5 49//5
f 50//10 55//10 56//10 51//10
f 55//11 52//11 54//11 56//11
g wall_8_49
usemtl wall_1_2
f 54//1 49//1 51//1
f 54//1 51//1 56//1
g wall_9_50
usemtl wall_1_2
v 201.5 0.0 95.559204
v 201.5 0.0 91.809204
f 58//3 57//3 52//3
f 58//3 52//3 1//3
g wall_9_51
usemtl wall_1_2
v 201.5 250.0 91.809204
v 201.5 250.0 95.559204
f 1//9 52//9 54//9 53//9
f 57//10 58//10 59//10 60//10
f 58//6 1//6 53//6 59//6
g wall_9_52
usemtl wall_1_2
f 53//1 54//1 60//1
f 53//1 60//1 59//1
g wall_9_53
usemtl wall_1_2
v 201.5 0.0 99.309204
f 57//3 61//3 55//3
f 57//3 55//3 52//3
g wall_9_54
usemtl wall_1_2
v 201.5 250.0 99.309204
f 52//9 55//9 56//9 54//9
f 55//7 61//7 62//7 56//7
f 61//10 57//10 60//10 62//10
g wall_9_55
usemtl wall_1_2
f 54//1 56//1 62//1
f 54//1 62//1 60//1
